<svg xmlns="http://www.w3.org/2000/svg" xmlns:xlink="http://www.w3.org/1999/xlink" xmlns:inkscape="http://www.inkscape.org/namespaces/inkscape" version="1.1" width="701" height="683" viewBox="0 0 701 683">
<path transform="matrix(.1,0,0,-.1,0,683)" d="M4289 6495C4109 6466 4016 6435 3807 6339L3680 6280H3542C3467 6280 3364 6273 3314 6266 2957 6211 2633 6021 2402 5731L2335 5647 1935 5459C1715 5355 1483 5247 1420 5219 1219 5128 936 4985 869 4940 503 4693 266 4321 200 3891 129 3432 273 2964 589 2628L673 2539 666 2447C659 2344 671 2193 695 2074 812 1503 1289 1053 1870 965 1939 954 2061 950 2322 950H2678L2705 917C2768 842 2941 674 3012 620 3284 414 3651 308 3981 340 4044 346 4102 353 4110 357 4118 360 4202 366 4295 370 4552 382 4729 425 4925 523 5166 643 5338 786 5493 994 5545 1065 5562 1080 5629 1115 5803 1206 5958 1335 6075 1485 6278 1744 6380 2039 6380 2364 6380 2516 6363 2634 6321 2775 6274 2931 6259 2963 6035 3350 5942 3513 5929 3539 5934 3570 5937 3589 5978 3726 6024 3874 6141 4244 6145 4263 6145 4505 6145 4720 6134 4795 6084 4942 6055 5023 6050 5050 6021 5232 5922 5850 5447 6349 4833 6480 4704 6508 4414 6516 4289 6495ZM2502 4083C2502 4073 2503 4057 2502 4048 2500 4024 2536 4025 2685 4050 2848 4078 2940 4086 2940 4072 2940 4066 2924 4050 2905 4037 2886 4024 2862 4003 2851 3989 2832 3965 2796 3946 2675 3897 2642 3883 2585 3859 2548 3844 2471 3811 2478 3828 2461 3640 2447 3493 2428 3370 2421 3375 2418 3377 2417 3355 2419 3327 2423 3262 2401 3140 2383 3133 2376 3130 2370 3124 2370 3118 2370 3113 2375 3112 2380 3115 2391 3122 2393 3109 2384 3086 2381 3077 2372 3070 2365 3070 2358 3070 2350 3052 2346 3030 2340 2991 2327 2978 2317 3003 2313 3011 2305 3007 2291 2990 2280 2976 2270 2967 2269 2970 2268 2973 2262 3009 2256 3050 2248 3103 2240 3124 2231 3122 2221 3120 2219 3128 2224 3157 2228 3178 2233 3265 2235 3350 2238 3435 2247 3557 2256 3620 2264 3683 2272 3744 2273 3755 2275 3777 2266 3778 2167 3765 2115 3758 2107 3759 2090 3778 2067 3802 2064 3830 2082 3848 2104 3870 2083 3871 2056 3849 2041 3837 2027 3829 2025 3832 2005 3852 2137 3915 2305 3966 2333 3975 2365 3993 2377 4006 2389 4019 2403 4030 2407 4030 2411 4030 2428 4046 2443 4065 2473 4103 2499 4111 2502 4083ZM3230 4034C3264 4020 3275 4008 3305 3946 3329 3898 3343 3851 3350 3800 3369 3647 3357 3634 3335 3784 3319 3891 3297 3950 3257 3993 3219 4032 3206 4026 3234 3983 3247 3962 3263 3927 3270 3905 3276 3883 3285 3856 3290 3845 3295 3834 3301 3805 3305 3780 3332 3602 3336 3583 3347 3587 3361 3592 3360 3586 3334 3455 3299 3273 3172 2989 3098 2925 3035 2872 2993 2870 2875 2913 2818 2934 2765 3000 2743 3076 2702 3213 2688 3426 2714 3522 2729 3579 2754 3653 2769 3685 2775 3696 2787 3726 2798 3751 2851 3875 2966 4007 3048 4036 3099 4054 3182 4053 3230 4034ZM4388 3998C4399 3980 4410 3949 4413 3930 4416 3911 4416 3901 4413 3908 4411 3914 4405 3918 4401 3915 4395 3912 4422 3696 4431 3670 4432 3667 4436 3685 4439 3710 4445 3749 4447 3741 4458 3640 4466 3577 4480 3489 4490 3445 4522 3307 4529 3268 4545 3152 4562 3021 4563 3007 4551 3014 4546 3017 4537 3006 4531 2990 4526 2973 4516 2960 4509 2960 4501 2960 4499 2947 4503 2920 4510 2863 4494 2871 4480 2932 4473 2960 4457 2998 4444 3017 4432 3036 4416 3068 4409 3088 4403 3108 4389 3142 4378 3163 4368 3184 4348 3258 4335 3328 4322 3398 4306 3474 4300 3498 4295 3521 4290 3554 4290 3570 4290 3608 4272 3609 4264 3573 4261 3557 4252 3529 4245 3510 4237 3491 4221 3444 4209 3405 4191 3347 4130 3205 4053 3043 4021 2974 3970 2942 3970 2989 3970 2999 3963 3013 3955 3020 3947 3027 3940 3045 3940 3060 3940 3085 3915 3105 3888 3101 3884 3101 3875 3119 3869 3143 3862 3166 3850 3194 3843 3205 3836 3216 3830 3232 3830 3241 3830 3249 3806 3310 3777 3376 3748 3441 3711 3537 3695 3588 3679 3638 3663 3680 3659 3680 3650 3680 3635 3602 3639 3575 3641 3565 3639 3523 3635 3482 3630 3425 3625 3410 3614 3414 3606 3417 3600 3413 3600 3404 3600 3396 3605 3392 3610 3395 3623 3403 3623 3382 3609 3303 3602 3264 3593 3240 3585 3240 3572 3240 3560 3208 3561 3175 3561 3162 3566 3167 3575 3190 3582 3209 3589 3219 3589 3212 3591 3189 3552 3066 3522 2995 3462 2857 3436 2910 3427 3190 3423 3327 3458 3598 3496 3725 3553 3910 3630 4058 3630 3980 3630 3969 3635 3960 3640 3960 3646 3960 3650 3969 3650 3980 3650 4079 3825 3750 3935 3442 3962 3369 3987 3313 3991 3317 3995 3321 4015 3377 4035 3440 4085 3592 4109 3649 4199 3814 4266 3936 4336 4030 4361 4030 4365 4030 4377 4015 4388 3998ZM4433 3836C4441 3785 4424 3802 4415 3855 4410 3881 4411 3892 4417 3885 4423 3880 4430 3857 4433 3836ZM3360 3623C3359 3599 3358 3597 3349 3613 3344 3622 3342 3635 3345 3640 3355 3657 3360 3651 3360 3623ZM3291 2690C3296 2690 3300 2686 3300 2680 3300 2675 3285 2670 3266 2670 3244 2670 3230 2664 3226 2654 3216 2627 3219 2620 3245 2620 3259 2620 3270 2616 3270 2610 3270 2605 3259 2600 3245 2600 3221 2600 3220 2598 3220 2529 3220 2477 3217 2459 3208 2462 3200 2465 3194 2491 3192 2531 3190 2566 3184 2598 3177 2602 3168 2608 3168 2612 3177 2618 3183 2622 3193 2638 3199 2653 3210 2681 3245 2702 3268 2694 3276 2692 3286 2690 3291 2690ZM2095 2661C2098 2656 2086 2650 2068 2648L2035 2645 2032 2553C2031 2502 2025 2460 2020 2460 2015 2460 2009 2502 2008 2553L2005 2645 1972 2648C1914 2654 1949 2670 2020 2670 2058 2670 2091 2666 2095 2661ZM2288 2566C2311 2512 2328 2465 2325 2461 2316 2453 2280 2498 2280 2516 2280 2526 2266 2530 2229 2530 2181 2530 2178 2528 2164 2495 2151 2463 2130 2447 2130 2469 2130 2474 2149 2522 2171 2575 2201 2644 2217 2670 2229 2668 2238 2666 2262 2624 2288 2566ZM2507 2654C2509 2648 2492 2644 2463 2644 2419 2645 2415 2643 2415 2620 2415 2600 2422 2594 2460 2583 2529 2563 2550 2520 2510 2480 2480 2450 2380 2454 2380 2485 2380 2496 2388 2496 2417 2488 2461 2476 2500 2490 2500 2519 2500 2542 2484 2555 2445 2564 2412 2572 2380 2597 2380 2614 2380 2620 2387 2636 2396 2648 2409 2667 2419 2671 2458 2668 2483 2666 2505 2660 2507 2654ZM2720 2660C2720 2655 2707 2650 2690 2650H2661L2658 2558C2656 2496 2651 2465 2643 2462 2633 2459 2630 2482 2630 2554V2650H2600C2584 2650 2570 2655 2570 2660 2570 2666 2602 2670 2645 2670 2688 2670 2720 2666 2720 2660ZM2905 2660C2909 2654 2890 2650 2856 2650H2800V2615 2580H2850C2878 2580 2900 2576 2900 2570 2900 2565 2878 2560 2850 2560H2800V2526C2800 2491 2800 2491 2852 2488 2883 2486 2905 2480 2908 2472 2911 2462 2896 2460 2843 2462L2775 2465 2772 2554C2770 2603 2771 2649 2774 2657 2780 2673 2895 2676 2905 2660ZM3382 2625C3417 2576 3424 2577 3461 2636 3473 2656 3490 2670 3501 2670 3519 2670 3521 2663 3518 2568 3514 2444 3497 2434 3490 2552L3485 2635 3455 2588C3439 2561 3422 2540 3418 2540 3414 2540 3396 2561 3378 2588L3345 2635 3342 2548C3338 2423 3320 2437 3320 2565 3320 2688 3331 2698 3382 2625ZM3728 2573C3751 2519 3770 2472 3770 2468 3770 2447 3748 2464 3733 2495 3717 2528 3713 2530 3670 2530 3627 2530 3623 2528 3607 2495 3589 2457 3564 2446 3575 2482 3595 2542 3661 2670 3673 2670 3681 2670 3704 2629 3728 2573ZM3979 2644C4005 2622 4010 2611 4010 2573 4010 2549 4005 2520 3999 2508 3985 2481 3930 2460 3875 2460H3830V2565 2670H3889C3938 2670 3954 2666 3979 2644ZM4098 2589C4101 2509 4116 2480 4155 2480 4194 2480 4213 2513 4218 2595 4220 2636 4227 2670 4231 2670 4236 2670 4240 2634 4240 2590 4240 2517 4237 2507 4215 2485 4199 2468 4180 2460 4155 2460 4130 2460 4111 2468 4095 2485 4073 2507 4070 2517 4070 2590 4070 2651 4073 2671 4083 2668 4091 2665 4096 2637 4098 2589ZM4432 2658C4462 2634 4463 2602 4437 2576L4412 2551 4436 2516C4462 2479 4466 2460 4450 2460 4444 2460 4427 2480 4412 2505 4391 2541 4380 2550 4358 2550 4331 2550 4330 2548 4330 2504 4330 2472 4326 2460 4318 2462 4309 2465 4304 2498 4302 2568L4299 2670H4358C4390 2670 4423 2664 4432 2658ZM4669 2576C4692 2525 4710 2478 4710 2471 4710 2447 4690 2462 4676 2495 4662 2528 4659 2530 4611 2530 4566 2530 4560 2527 4554 2505 4548 2480 4523 2453 4515 2462 4510 2467 4564 2602 4590 2650 4610 2687 4627 2671 4669 2576ZM4790 2565C4790 2502 4786 2460 4780 2460 4774 2460 4770 2502 4770 2565 4770 2628 4774 2670 4780 2670 4786 2670 4790 2628 4790 2565ZM3108 2594C3138 2560 3137 2515 3104 2485 3058 2443 2982 2457 2959 2512 2942 2554 2957 2591 3000 2613 3042 2634 3077 2628 3108 2594Z"/>
<path transform="matrix(.1,0,0,-.1,0,683)" d="M2456 4064C2453 4055 2456 4040 2464 4029 2477 4010 2478 4010 2484 4035 2494 4074 2470 4100 2456 4064Z"/>
<path transform="matrix(.1,0,0,-.1,0,683)" d="M2865 4049C2854 4032 2865 4029 2886 4045 2903 4058 2903 4059 2888 4060 2879 4060 2868 4055 2865 4049Z"/>
<path transform="matrix(.1,0,0,-.1,0,683)" d="M2515 3963C2496 3948 2497 3948 2534 3953 2556 3957 2578 3964 2584 3970 2601 3987 2537 3981 2515 3963Z"/>
<path transform="matrix(.1,0,0,-.1,0,683)" d="M2508 3863C2498 3861 2490 3854 2490 3849 2490 3838 2529 3847 2545 3861 2554 3870 2539 3871 2508 3863Z"/>
<path transform="matrix(.1,0,0,-.1,0,683)" d="M2110 3780C2110 3775 2114 3770 2119 3770 2125 3770 2132 3775 2135 3780 2138 3786 2134 3790 2126 3790 2117 3790 2110 3786 2110 3780Z"/>
<path transform="matrix(.1,0,0,-.1,0,683)" d="M2392 3270C2392 3256 2394 3251 2397 3258 2399 3264 2399 3276 2397 3283 2394 3289 2392 3284 2392 3270Z"/>
<path transform="matrix(.1,0,0,-.1,0,683)" d="M2280 3226C2280 3217 2285 3210 2290 3210 2296 3210 2300 3214 2300 3219 2300 3225 2296 3232 2290 3235 2285 3238 2280 3234 2280 3226Z"/>
<path transform="matrix(.1,0,0,-.1,0,683)" d="M2377 3227C2373 3217 2370 3201 2370 3192 2371 3177 2372 3177 2381 3193 2387 3203 2390 3218 2388 3228 2385 3244 2384 3243 2377 3227Z"/>
<path transform="matrix(.1,0,0,-.1,0,683)" d="M2280 3100C2280 3095 2285 3090 2291 3090 2296 3090 2298 3095 2295 3100 2292 3106 2287 3110 2284 3110 2282 3110 2280 3106 2280 3100Z"/>
<path transform="matrix(.1,0,0,-.1,0,683)" d="M3075 3997C3059 3984 3060 3983 3088 3988 3106 3990 3117 3996 3114 4001 3107 4013 3097 4012 3075 3997Z"/>
<path transform="matrix(.1,0,0,-.1,0,683)" d="M3055 3896C3026 3884 2956 3813 2924 3765 2911 3745 2871 3616 2849 3522 2834 3460 2835 3290 2851 3243 2894 3107 2902 3099 2992 3096 3040 3095 3056 3112 3113 3224 3162 3320 3182 3422 3182 3583 3183 3653 3187 3710 3192 3710 3196 3710 3200 3662 3201 3603 3202 3510 3203 3501 3212 3535 3226 3591 3215 3778 3196 3821L3181 3855 3185 3795 3189 3735 3174 3800C3151 3898 3145 3910 3113 3910 3097 3909 3071 3903 3055 3896Z"/>
<path transform="matrix(.1,0,0,-.1,0,683)" d="M3312 3545C3312 3529 3314 3523 3317 3533 3319 3542 3319 3556 3317 3563 3314 3569 3312 3562 3312 3545Z"/>
<path transform="matrix(.1,0,0,-.1,0,683)" d="M3297 3451C3293 3417 3288 3377 3285 3362L3280 3335 3291 3360C3307 3397 3319 3483 3311 3499 3306 3506 3300 3486 3297 3451Z"/>
<path transform="matrix(.1,0,0,-.1,0,683)" d="M3243 3348C3236 3324 3229 3296 3225 3285 3221 3272 3224 3273 3233 3290 3248 3315 3266 3390 3258 3390 3256 3390 3249 3371 3243 3348Z"/>
<path transform="matrix(.1,0,0,-.1,0,683)" d="M2780 3328C2780 3319 2785 3308 2790 3305 2803 3297 2803 3310 2790 3330 2782 3343 2780 3343 2780 3328Z"/>
<path transform="matrix(.1,0,0,-.1,0,683)" d="M2800 3186C2800 3178 2805 3168 2810 3165 2816 3162 2820 3166 2820 3174 2820 3182 2816 3192 2810 3195 2805 3198 2800 3194 2800 3186Z"/>
<path transform="matrix(.1,0,0,-.1,0,683)" d="M3035 3080C3014 3064 2991 3050 2984 3050 2976 3050 2973 3044 2976 3035 2990 2999 3041 3023 3070 3078 3088 3113 3077 3114 3035 3080Z"/>
<path transform="matrix(.1,0,0,-.1,0,683)" d="M2925 3080C2928 3075 2936 3070 2941 3070 2947 3070 2948 3075 2945 3080 2942 3086 2934 3090 2929 3090 2923 3090 2922 3086 2925 3080Z"/>
<path transform="matrix(.1,0,0,-.1,0,683)" d="M3124 3021C3092 2992 3074 2960 3089 2960 3100 2960 3160 3028 3160 3040 3160 3054 3159 3053 3124 3021Z"/>
<path transform="matrix(.1,0,0,-.1,0,683)" d="M3037 2969C3028 2963 3020 2955 3020 2950 3020 2934 3050 2939 3057 2955 3065 2976 3058 2980 3037 2969Z"/>
<path transform="matrix(.1,0,0,-.1,0,683)" d="M2930 2940C2930 2935 2935 2930 2941 2930 2946 2930 2948 2935 2945 2940 2942 2946 2937 2950 2934 2950 2932 2950 2930 2946 2930 2940Z"/>
<path transform="matrix(.1,0,0,-.1,0,683)" d="M2967 2923C2952 2909 2961 2900 2990 2900 3022 2900 3030 2914 3004 2924 2984 2932 2975 2932 2967 2923Z"/>
<path transform="matrix(.1,0,0,-.1,0,683)" d="M3690 3850C3690 3844 3701 3812 3715 3778 3729 3744 3740 3704 3740 3688 3740 3672 3749 3642 3760 3620 3771 3598 3780 3574 3780 3565 3780 3557 3784 3550 3790 3550 3795 3550 3790 3574 3779 3603 3767 3631 3756 3680 3753 3710 3748 3766 3714 3860 3699 3860 3694 3860 3690 3855 3690 3850Z"/>
<path transform="matrix(.1,0,0,-.1,0,683)" d="M4257 3770C4233 3711 4211 3640 4206 3610 4201 3575 4201 3575 4215 3600 4235 3634 4272 3759 4267 3773 4264 3781 4260 3780 4257 3770Z"/>
<path transform="matrix(.1,0,0,-.1,0,683)" d="M3780 3664C3781 3625 3889 3360 3904 3360 3908 3360 3866 3478 3822 3587 3795 3657 3780 3684 3780 3664Z"/>
<path transform="matrix(.1,0,0,-.1,0,683)" d="M4344 3623C4346 3607 4352 3569 4355 3536 4359 3504 4365 3482 4369 3486 4379 3498 4359 3650 4347 3650 4342 3650 4341 3638 4344 3623Z"/>
<path transform="matrix(.1,0,0,-.1,0,683)" d="M3854 3590C3857 3576 3875 3518 3894 3460 3914 3402 3930 3346 3930 3335 3930 3323 3934 3310 3939 3305 3944 3299 3950 3286 3953 3275 3956 3261 3958 3263 3959 3284 3961 3337 3916 3479 3862 3590L3850 3615 3854 3590Z"/>
<path transform="matrix(.1,0,0,-.1,0,683)" d="M3548 3465C3528 3354 3517 3255 3529 3290 3544 3333 3573 3514 3568 3535 3566 3546 3557 3515 3548 3465Z"/>
<path transform="matrix(.1,0,0,-.1,0,683)" d="M4087 3394C4063 3327 4066 3303 4091 3364 4102 3391 4110 3420 4108 3428 4106 3436 4097 3421 4087 3394Z"/>
<path transform="matrix(.1,0,0,-.1,0,683)" d="M3880 3271C3880 3265 3884 3258 3890 3255 3896 3252 3897 3256 3894 3264 3887 3282 3880 3285 3880 3271Z"/>
<path transform="matrix(.1,0,0,-.1,0,683)" d="M3547 3136C3543 3126 3542 3115 3545 3112 3554 3103 3562 3118 3558 3137 3555 3154 3554 3154 3547 3136Z"/>
<path transform="matrix(.1,0,0,-.1,0,683)" d="M3990 3100C3990 3095 3995 3090 4001 3090 4006 3090 4008 3095 4005 3100 4002 3106 3997 3110 3994 3110 3992 3110 3990 3106 3990 3100Z"/>
<path transform="matrix(.1,0,0,-.1,0,683)" d="M4046 3094C4037 3070 4039 3066 4055 3080 4072 3094 4075 3110 4061 3110 4056 3110 4049 3103 4046 3094Z"/>
<path transform="matrix(.1,0,0,-.1,0,683)" d="M4002 3033C3996 3021 3990 3003 3990 2994 3990 2977 3991 2977 4006 2992 4015 3000 4020 3018 4018 3031L4015 3055 4002 3033Z"/>
<path transform="matrix(.1,0,0,-.1,0,683)" d="M3480 2999C3480 2994 3485 2992 3490 2995 3496 2998 3500 3003 3500 3006 3500 3008 3496 3010 3490 3010 3485 3010 3480 3005 3480 2999Z"/>
<path transform="matrix(.1,0,0,-.1,0,683)" d="M2212 2613C2207 2597 2199 2577 2195 2568 2189 2553 2194 2550 2224 2550 2244 2550 2260 2554 2260 2559 2260 2571 2231 2640 2226 2640 2224 2640 2217 2628 2212 2613Z"/>
<path transform="matrix(.1,0,0,-.1,0,683)" d="M3656 2608C3634 2556 3636 2550 3670 2550 3704 2550 3707 2561 3686 2611L3671 2645 3656 2608Z"/>
<path transform="matrix(.1,0,0,-.1,0,683)" d="M3858 2644C3853 2640 3850 2604 3850 2563V2490H3899C3941 2490 3952 2494 3970 2517 3994 2548 3992 2602 3966 2628 3950 2644 3869 2656 3858 2644Z"/>
<path transform="matrix(.1,0,0,-.1,0,683)" d="M4330 2614C4330 2579 4330 2579 4371 2582 4452 2588 4444 2650 4363 2650 4332 2650 4330 2648 4330 2614Z"/>
<path transform="matrix(.1,0,0,-.1,0,683)" d="M4596 2606C4574 2554 4575 2550 4609 2550 4648 2550 4651 2557 4629 2604L4612 2644 4596 2606Z"/>
<path transform="matrix(.1,0,0,-.1,0,683)" d="M3012 2599C2969 2583 2970 2514 3013 2490 3037 2477 3043 2477 3068 2490 3098 2507 3111 2560 3090 2585 3076 2602 3039 2609 3012 2599Z"/>
</svg>
